G04*
G04 #@! TF.GenerationSoftware,Altium Limited,Altium Designer,21.3.2 (30)*
G04*
G04 Layer_Color=65535*
%FSLAX24Y24*%
%MOIN*%
G70*
G04*
G04 #@! TF.SameCoordinates,C6C43F33-DCCB-449E-A6F8-7945281E5F6C*
G04*
G04*
G04 #@! TF.FilePolarity,Positive*
G04*
G01*
G75*
%ADD10C,0.0098*%
%ADD11C,0.0236*%
%ADD12C,0.0039*%
%ADD13C,0.0079*%
%ADD14C,0.0040*%
%ADD15C,0.0250*%
%ADD16C,0.0050*%
%ADD17C,0.0100*%
D10*
X2208Y13194D02*
G03*
X2208Y13194I-49J0D01*
G01*
X10979Y15964D02*
G03*
X10979Y15964I-49J0D01*
G01*
D11*
X11885Y15432D02*
G03*
X11885Y15432I-118J0D01*
G01*
D12*
X18882Y14050D02*
G03*
X18882Y14050I-394J0D01*
G01*
X18874Y15240D02*
G03*
X18874Y15240I-394J0D01*
G01*
D13*
X2158Y13785D02*
X4796D01*
X2158Y14887D02*
X4796D01*
X2158Y13785D02*
Y14887D01*
X4796Y13785D02*
Y14887D01*
X5462Y14543D02*
X5658D01*
X5560Y14445D02*
Y14642D01*
X5914Y13411D02*
Y13589D01*
X5206Y13411D02*
Y13589D01*
X4033Y11682D02*
Y11878D01*
X3935Y11780D02*
X4132D01*
X2901Y11426D02*
X3079D01*
X2901Y12134D02*
X3079D01*
X20960Y9860D02*
X21960D01*
X20960Y8860D02*
X21960D01*
X20960D02*
Y11860D01*
X21960D01*
Y8860D02*
Y11860D01*
X20950Y12990D02*
X21950D01*
X20950Y11990D02*
X21950D01*
X20950D02*
Y15990D01*
X21950Y11990D02*
Y15990D01*
X20950D02*
X21950D01*
X11373Y13385D02*
X13814D01*
X11373Y15826D02*
X13814D01*
Y13385D02*
Y15826D01*
X11373Y13385D02*
Y15826D01*
X10836Y2260D02*
Y3420D01*
X16006D01*
X10836Y2260D02*
X16006D01*
Y3420D01*
D14*
X6150Y13760D02*
X6610D01*
X6150Y12690D02*
Y13760D01*
Y12690D02*
X6610D01*
Y13760D01*
X6540Y13190D02*
Y13270D01*
X6220Y13190D02*
Y13270D01*
X3770Y10780D02*
Y11240D01*
X2700D02*
X3770D01*
X2700Y10780D02*
Y11240D01*
Y10780D02*
X3770D01*
X3200Y10850D02*
X3280D01*
X3200Y11170D02*
X3280D01*
X11250Y17115D02*
X11710D01*
Y18185D01*
X11250D02*
X11710D01*
X11250Y17115D02*
Y18185D01*
X11320Y17605D02*
Y17685D01*
X11640Y17605D02*
Y17685D01*
X9440Y12860D02*
Y13320D01*
X8370D02*
X9440D01*
X8370Y12860D02*
Y13320D01*
Y12860D02*
X9440D01*
X8870Y12930D02*
X8950D01*
X8870Y13250D02*
X8950D01*
X15205Y15460D02*
Y15920D01*
Y15460D02*
X16275D01*
Y15920D01*
X15205D02*
X16275D01*
X15695Y15850D02*
X15775D01*
X15695Y15530D02*
X15775D01*
X13380Y12110D02*
X13840D01*
X13380Y11040D02*
Y12110D01*
Y11040D02*
X13840D01*
Y12110D01*
X13770Y11540D02*
Y11620D01*
X13450Y11540D02*
Y11620D01*
X3550Y9160D02*
Y9210D01*
X2650D02*
X3550D01*
X2650Y9160D02*
Y9210D01*
X3550Y8510D02*
Y8560D01*
X2650Y8510D02*
X3550D01*
X2650D02*
Y8560D01*
X2990Y9720D02*
X3070D01*
X2990Y9400D02*
X3070D01*
X2490Y9330D02*
X3560D01*
X2490D02*
Y9790D01*
X3560D01*
Y9330D02*
Y9790D01*
X12840Y9730D02*
X12890D01*
Y10630D01*
X12840D02*
X12890D01*
X12190Y9730D02*
X12240D01*
X12190D02*
Y10630D01*
X12240D01*
X12410Y11540D02*
Y11620D01*
X12730Y11540D02*
Y11620D01*
X12800Y11040D02*
Y12110D01*
X12340Y11040D02*
X12800D01*
X12340D02*
Y12110D01*
X12800D01*
X19730Y13320D02*
X19810D01*
X19730Y13640D02*
X19810D01*
X19240Y13710D02*
X20310D01*
Y13250D02*
Y13710D01*
X19240Y13250D02*
X20310D01*
X19240D02*
Y13710D01*
X19730Y14510D02*
X19810D01*
X19730Y14830D02*
X19810D01*
X19240Y14900D02*
X20310D01*
Y14440D02*
Y14900D01*
X19240Y14440D02*
X20310D01*
X19240D02*
Y14900D01*
X8800Y17680D02*
X8880D01*
X8800Y17360D02*
X8880D01*
X8300Y17290D02*
X9370D01*
X8300D02*
Y17750D01*
X9370D01*
Y17290D02*
Y17750D01*
X19240Y13820D02*
Y14280D01*
Y13820D02*
X20310D01*
Y14280D01*
X19240D02*
X20310D01*
X19730Y14210D02*
X19810D01*
X19730Y13890D02*
X19810D01*
X19257Y14970D02*
Y15430D01*
Y14970D02*
X20327D01*
Y15430D01*
X19257D02*
X20327D01*
X19747Y15360D02*
X19827D01*
X19747Y15040D02*
X19827D01*
X9990Y17360D02*
X10070D01*
X9990Y17680D02*
X10070D01*
X9500Y17750D02*
X10570D01*
Y17290D02*
Y17750D01*
X9500Y17290D02*
X10570D01*
X9500D02*
Y17750D01*
X12370Y17605D02*
Y17685D01*
X12050Y17605D02*
Y17685D01*
X11980Y17115D02*
Y18185D01*
X12440D01*
Y17115D02*
Y18185D01*
X11980Y17115D02*
X12440D01*
X7720Y14210D02*
X8180D01*
Y15280D01*
X7720D02*
X8180D01*
X7720Y14210D02*
Y15280D01*
X7790Y14700D02*
Y14780D01*
X8110Y14700D02*
Y14780D01*
X9735Y15690D02*
Y16150D01*
X8665D02*
X9735D01*
X8665Y15690D02*
Y16150D01*
Y15690D02*
X9735D01*
X9165Y15760D02*
X9245D01*
X9165Y16080D02*
X9245D01*
D15*
X5624Y18010D02*
Y20262D01*
X10576D01*
Y18010D02*
Y20262D01*
X5624Y18010D02*
X10576D01*
D16*
X8260Y15510D02*
X9960D01*
Y14110D02*
Y15510D01*
X8260Y14110D02*
Y15510D01*
Y14110D02*
X9960D01*
D17*
X17970Y15890D02*
Y16190D01*
X18120D01*
X18170Y16140D01*
Y16040D01*
X18120Y15990D01*
X17970D01*
X18070D02*
X18170Y15890D01*
X18470Y16190D02*
X18270D01*
Y15890D01*
X18470D01*
X18270Y16040D02*
X18370D01*
X18770Y16140D02*
X18720Y16190D01*
X18620D01*
X18570Y16140D01*
Y16090D01*
X18620Y16040D01*
X18720D01*
X18770Y15990D01*
Y15940D01*
X18720Y15890D01*
X18620D01*
X18570Y15940D01*
X19070Y16190D02*
X18870D01*
Y15890D01*
X19070D01*
X18870Y16040D02*
X18970D01*
X19170Y16190D02*
X19370D01*
X19270D01*
Y15890D01*
X14030Y20050D02*
X13980Y20100D01*
X13880D01*
X13830Y20050D01*
Y20000D01*
X13880Y19950D01*
X13980D01*
X14030Y19900D01*
Y19850D01*
X13980Y19800D01*
X13880D01*
X13830Y19850D01*
X14130Y20100D02*
Y19800D01*
X14280D01*
X14330Y19850D01*
Y20050D01*
X14280Y20100D01*
X14130D01*
X14430Y19800D02*
Y20000D01*
X14530Y20100D01*
X14630Y20000D01*
Y19800D01*
Y19950D01*
X14430D01*
X13020Y20050D02*
X12970Y20100D01*
X12870D01*
X12820Y20050D01*
Y20000D01*
X12870Y19950D01*
X12970D01*
X13020Y19900D01*
Y19850D01*
X12970Y19800D01*
X12870D01*
X12820Y19850D01*
X13320Y20050D02*
X13270Y20100D01*
X13170D01*
X13120Y20050D01*
Y19850D01*
X13170Y19800D01*
X13270D01*
X13320Y19850D01*
X13420Y20100D02*
Y19800D01*
X13620D01*
X11990Y20050D02*
X11940Y20100D01*
X11840D01*
X11790Y20050D01*
Y19850D01*
X11840Y19800D01*
X11940D01*
X11990Y19850D01*
Y19950D01*
X11890D01*
X12090Y19800D02*
Y20100D01*
X12290Y19800D01*
Y20100D01*
X12390D02*
Y19800D01*
X12540D01*
X12590Y19850D01*
Y20050D01*
X12540Y20100D01*
X12390D01*
X11040Y19950D02*
X11240D01*
X11140Y20050D02*
Y19850D01*
X11540Y20100D02*
X11340D01*
Y19950D01*
X11440Y20000D01*
X11490D01*
X11540Y19950D01*
Y19850D01*
X11490Y19800D01*
X11390D01*
X11340Y19850D01*
X15319Y2020D02*
X15519D01*
X15419D01*
Y1720D01*
X15619Y2020D02*
X15819Y1720D01*
Y2020D02*
X15619Y1720D01*
X14387D02*
Y2020D01*
X14537D01*
X14587Y1970D01*
Y1870D01*
X14537Y1820D01*
X14387D01*
X14487D02*
X14587Y1720D01*
X14687Y2020D02*
X14887Y1720D01*
Y2020D02*
X14687Y1720D01*
X13305Y2020D02*
X13205D01*
X13155Y1970D01*
Y1770D01*
X13205Y1720D01*
X13305D01*
X13355Y1770D01*
Y1970D01*
X13305Y2020D01*
X13455D02*
Y1770D01*
X13505Y1720D01*
X13605D01*
X13655Y1770D01*
Y2020D01*
X13755D02*
X13954D01*
X13855D01*
Y1720D01*
X12122Y1970D02*
X12072Y2020D01*
X11972D01*
X11922Y1970D01*
Y1770D01*
X11972Y1720D01*
X12072D01*
X12122Y1770D01*
Y1870D01*
X12022D01*
X12222Y1720D02*
Y2020D01*
X12422Y1720D01*
Y2020D01*
X12522D02*
Y1720D01*
X12672D01*
X12722Y1770D01*
Y1970D01*
X12672Y2020D01*
X12522D01*
X10990Y1870D02*
X11190D01*
X11090Y1970D02*
Y1770D01*
X11490Y2020D02*
X11290D01*
Y1870D01*
X11390Y1920D01*
X11440D01*
X11490Y1870D01*
Y1770D01*
X11440Y1720D01*
X11340D01*
X11290Y1770D01*
X22150Y15210D02*
Y15410D01*
Y15310D01*
X22450D01*
X22150Y15510D02*
X22450Y15710D01*
X22150D02*
X22450Y15510D01*
Y14263D02*
X22150D01*
Y14413D01*
X22200Y14463D01*
X22300D01*
X22350Y14413D01*
Y14263D01*
Y14363D02*
X22450Y14463D01*
X22150Y14563D02*
X22450Y14763D01*
X22150D02*
X22450Y14563D01*
X22200Y13217D02*
X22150Y13167D01*
Y13067D01*
X22200Y13017D01*
X22400D01*
X22450Y13067D01*
Y13167D01*
X22400Y13217D01*
X22300D01*
Y13117D01*
X22450Y13317D02*
X22150D01*
X22450Y13517D01*
X22150D01*
Y13616D02*
X22450D01*
Y13766D01*
X22400Y13816D01*
X22200D01*
X22150Y13766D01*
Y13616D01*
X22300Y12070D02*
Y12270D01*
X22200Y12170D02*
X22400D01*
X22150Y12570D02*
Y12370D01*
X22300D01*
X22250Y12470D01*
Y12520D01*
X22300Y12570D01*
X22400D01*
X22450Y12520D01*
Y12420D01*
X22400Y12370D01*
X22230Y9080D02*
X22180Y9030D01*
Y8930D01*
X22230Y8880D01*
X22430D01*
X22480Y8930D01*
Y9030D01*
X22430Y9080D01*
X22180Y9180D02*
X22480D01*
Y9380D01*
X22180Y9480D02*
X22480D01*
X22380D01*
X22180Y9680D01*
X22330Y9530D01*
X22480Y9680D01*
X22180Y9960D02*
X22480D01*
Y10110D01*
X22430Y10160D01*
X22230D01*
X22180Y10110D01*
Y9960D01*
Y10260D02*
Y10360D01*
Y10310D01*
X22480D01*
Y10260D01*
Y10360D01*
X22180Y10660D02*
Y10560D01*
X22230Y10510D01*
X22430D01*
X22480Y10560D01*
Y10660D01*
X22430Y10709D01*
X22230D01*
X22180Y10660D01*
X22230Y11189D02*
X22180Y11139D01*
Y11039D01*
X22230Y10989D01*
X22430D01*
X22480Y11039D01*
Y11139D01*
X22430Y11189D01*
X22330D01*
Y11089D01*
X22480Y11289D02*
X22180D01*
X22480Y11489D01*
X22180D01*
Y11589D02*
X22480D01*
Y11739D01*
X22430Y11789D01*
X22230D01*
X22180Y11739D01*
Y11589D01*
X8293Y13930D02*
Y13863D01*
X8427Y13730D01*
X8560Y13863D01*
Y13930D01*
X8427Y13730D02*
Y13530D01*
X8693D02*
X8827D01*
X8760D01*
Y13930D01*
X8693Y13863D01*
X16197Y2690D02*
Y2357D01*
X16263Y2290D01*
X16397D01*
X16463Y2357D01*
Y2690D01*
X16863Y2290D02*
X16597D01*
X16863Y2557D01*
Y2623D01*
X16797Y2690D01*
X16663D01*
X16597Y2623D01*
X10123Y16480D02*
Y16147D01*
X10190Y16080D01*
X10323D01*
X10390Y16147D01*
Y16480D01*
X10523Y16080D02*
X10657D01*
X10590D01*
Y16480D01*
X10523Y16413D01*
X12400Y18327D02*
X12000D01*
Y18527D01*
X12067Y18593D01*
X12200D01*
X12267Y18527D01*
Y18327D01*
Y18460D02*
X12400Y18593D01*
X12000Y18727D02*
Y18993D01*
X12067D01*
X12333Y18727D01*
X12400D01*
X9867Y16750D02*
Y17150D01*
X10067D01*
X10133Y17083D01*
Y16950D01*
X10067Y16883D01*
X9867D01*
X10000D02*
X10133Y16750D01*
X10533Y17150D02*
X10400Y17083D01*
X10267Y16950D01*
Y16817D01*
X10333Y16750D01*
X10467D01*
X10533Y16817D01*
Y16883D01*
X10467Y16950D01*
X10267D01*
X8317Y16760D02*
Y17160D01*
X8517D01*
X8583Y17093D01*
Y16960D01*
X8517Y16893D01*
X8317D01*
X8450D02*
X8583Y16760D01*
X8983Y17160D02*
X8717D01*
Y16960D01*
X8850Y17027D01*
X8917D01*
X8983Y16960D01*
Y16827D01*
X8917Y16760D01*
X8783D01*
X8717Y16827D01*
X19317Y10690D02*
Y11090D01*
X19517D01*
X19583Y11023D01*
Y10890D01*
X19517Y10823D01*
X19317D01*
X19450D02*
X19583Y10690D01*
X19917D02*
Y11090D01*
X19717Y10890D01*
X19983D01*
X19317Y12030D02*
Y12429D01*
X19517D01*
X19583Y12363D01*
Y12229D01*
X19517Y12163D01*
X19317D01*
X19450D02*
X19583Y12030D01*
X19717Y12363D02*
X19783Y12429D01*
X19917D01*
X19983Y12363D01*
Y12296D01*
X19917Y12229D01*
X19850D01*
X19917D01*
X19983Y12163D01*
Y12096D01*
X19917Y12030D01*
X19783D01*
X19717Y12096D01*
X11790Y12063D02*
X12190D01*
Y11863D01*
X12123Y11797D01*
X11990D01*
X11923Y11863D01*
Y12063D01*
Y11930D02*
X11790Y11797D01*
Y11397D02*
Y11663D01*
X12057Y11397D01*
X12123D01*
X12190Y11463D01*
Y11597D01*
X12123Y11663D01*
X1763Y9340D02*
Y9740D01*
X1963D01*
X2030Y9673D01*
Y9540D01*
X1963Y9473D01*
X1763D01*
X1897D02*
X2030Y9340D01*
X2163D02*
X2297D01*
X2230D01*
Y9740D01*
X2163Y9673D01*
X13450Y10523D02*
X13050D01*
Y10257D01*
Y9857D02*
Y10123D01*
X13317Y9857D01*
X13383D01*
X13450Y9923D01*
Y10057D01*
X13383Y10123D01*
X1763Y8970D02*
Y8570D01*
X2030D01*
X2163D02*
X2297D01*
X2230D01*
Y8970D01*
X2163Y8903D01*
X7777Y16073D02*
X7710Y16140D01*
X7577D01*
X7510Y16073D01*
Y15807D01*
X7577Y15740D01*
X7710D01*
X7777Y15807D01*
X7910Y15740D02*
X8043D01*
X7977D01*
Y16140D01*
X7910Y16073D01*
X8510Y15740D02*
X8243D01*
X8510Y16007D01*
Y16073D01*
X8443Y16140D01*
X8310D01*
X8243Y16073D01*
X7523Y14957D02*
X7590Y15023D01*
Y15157D01*
X7523Y15223D01*
X7257D01*
X7190Y15157D01*
Y15023D01*
X7257Y14957D01*
X7190Y14823D02*
Y14690D01*
Y14757D01*
X7590D01*
X7523Y14823D01*
X7190Y14490D02*
Y14357D01*
Y14423D01*
X7590D01*
X7523Y14490D01*
X19583Y11693D02*
X19517Y11760D01*
X19383D01*
X19317Y11693D01*
Y11426D01*
X19383Y11360D01*
X19517D01*
X19583Y11426D01*
X19717Y11360D02*
X19850D01*
X19783D01*
Y11760D01*
X19717Y11693D01*
X20050D02*
X20117Y11760D01*
X20250D01*
X20316Y11693D01*
Y11426D01*
X20250Y11360D01*
X20117D01*
X20050Y11426D01*
Y11693D01*
X19583Y13033D02*
X19517Y13099D01*
X19383D01*
X19317Y13033D01*
Y12766D01*
X19383Y12699D01*
X19517D01*
X19583Y12766D01*
X19717D02*
X19783Y12699D01*
X19917D01*
X19983Y12766D01*
Y13033D01*
X19917Y13099D01*
X19783D01*
X19717Y13033D01*
Y12966D01*
X19783Y12899D01*
X19983D01*
X11347Y18573D02*
X11280Y18507D01*
Y18373D01*
X11347Y18307D01*
X11613D01*
X11680Y18373D01*
Y18507D01*
X11613Y18573D01*
X11347Y18707D02*
X11280Y18773D01*
Y18907D01*
X11347Y18973D01*
X11413D01*
X11480Y18907D01*
X11547Y18973D01*
X11613D01*
X11680Y18907D01*
Y18773D01*
X11613Y18707D01*
X11547D01*
X11480Y18773D01*
X11413Y18707D01*
X11347D01*
X11480Y18773D02*
Y18907D01*
X9843Y13223D02*
X9777Y13290D01*
X9643D01*
X9577Y13223D01*
Y12957D01*
X9643Y12890D01*
X9777D01*
X9843Y12957D01*
X9977Y13290D02*
X10243D01*
Y13223D01*
X9977Y12957D01*
Y12890D01*
X16663Y15853D02*
X16597Y15920D01*
X16463D01*
X16397Y15853D01*
Y15587D01*
X16463Y15520D01*
X16597D01*
X16663Y15587D01*
X17063Y15920D02*
X16930Y15853D01*
X16797Y15720D01*
Y15587D01*
X16863Y15520D01*
X16997D01*
X17063Y15587D01*
Y15653D01*
X16997Y15720D01*
X16797D01*
X14343Y11827D02*
X14410Y11893D01*
Y12027D01*
X14343Y12093D01*
X14077D01*
X14010Y12027D01*
Y11893D01*
X14077Y11827D01*
X14410Y11427D02*
Y11693D01*
X14210D01*
X14277Y11560D01*
Y11493D01*
X14210Y11427D01*
X14077D01*
X14010Y11493D01*
Y11627D01*
X14077Y11693D01*
X1697Y11713D02*
X1630Y11647D01*
Y11513D01*
X1697Y11447D01*
X1963D01*
X2030Y11513D01*
Y11647D01*
X1963Y11713D01*
X2030Y12047D02*
X1630D01*
X1830Y11847D01*
Y12113D01*
X3023Y10513D02*
X2957Y10580D01*
X2823D01*
X2757Y10513D01*
Y10247D01*
X2823Y10180D01*
X2957D01*
X3023Y10247D01*
X3157Y10513D02*
X3223Y10580D01*
X3357D01*
X3423Y10513D01*
Y10447D01*
X3357Y10380D01*
X3290D01*
X3357D01*
X3423Y10313D01*
Y10247D01*
X3357Y10180D01*
X3223D01*
X3157Y10247D01*
X5853Y12297D02*
X5920Y12363D01*
Y12497D01*
X5853Y12563D01*
X5587D01*
X5520Y12497D01*
Y12363D01*
X5587Y12297D01*
X5520Y11897D02*
Y12163D01*
X5787Y11897D01*
X5853D01*
X5920Y11963D01*
Y12097D01*
X5853Y12163D01*
X7113Y12980D02*
X7180Y13047D01*
Y13180D01*
X7113Y13247D01*
X6847D01*
X6780Y13180D01*
Y13047D01*
X6847Y12980D01*
X6780Y12847D02*
Y12713D01*
Y12780D01*
X7180D01*
X7113Y12847D01*
X1950Y13694D02*
X1683D01*
X1550Y13827D01*
X1683Y13960D01*
X1950D01*
X1750D01*
Y13694D01*
X1950Y14093D02*
X1550D01*
X1683Y14227D01*
X1550Y14360D01*
X1950D01*
X1617Y14760D02*
X1550Y14693D01*
Y14560D01*
X1617Y14493D01*
X1683D01*
X1750Y14560D01*
Y14693D01*
X1817Y14760D01*
X1883D01*
X1950Y14693D01*
Y14560D01*
X1883Y14493D01*
X1950Y14893D02*
Y15026D01*
Y14960D01*
X1550D01*
X1617Y14893D01*
M02*
