G04*
G04 #@! TF.GenerationSoftware,Altium Limited,Altium Designer,21.3.2 (30)*
G04*
G04 Layer_Color=8388736*
%FSLAX24Y24*%
%MOIN*%
G70*
G04*
G04 #@! TF.SameCoordinates,C6C43F33-DCCB-449E-A6F8-7945281E5F6C*
G04*
G04*
G04 #@! TF.FilePolarity,Negative*
G04*
G01*
G75*
%ADD20R,0.0709X0.0551*%
%ADD22R,0.0551X0.0709*%
%ADD30R,0.0474X0.1025*%
%ADD31R,0.1379X0.1025*%
%ADD32R,0.0434X0.0454*%
%ADD33R,0.0454X0.0434*%
%ADD34R,0.0580X0.0630*%
%ADD35R,0.0630X0.0580*%
%ADD36O,0.0198X0.0651*%
%ADD37O,0.0651X0.0198*%
%ADD38C,0.0159*%
G04:AMPARAMS|DCode=39|XSize=63.1mil|YSize=55.2mil|CornerRadius=9.9mil|HoleSize=0mil|Usage=FLASHONLY|Rotation=0.000|XOffset=0mil|YOffset=0mil|HoleType=Round|Shape=RoundedRectangle|*
%AMROUNDEDRECTD39*
21,1,0.0631,0.0354,0,0,0.0*
21,1,0.0433,0.0552,0,0,0.0*
1,1,0.0198,0.0217,-0.0177*
1,1,0.0198,-0.0217,-0.0177*
1,1,0.0198,-0.0217,0.0177*
1,1,0.0198,0.0217,0.0177*
%
%ADD39ROUNDEDRECTD39*%
%ADD40O,0.0986X0.0749*%
%ADD41R,0.0986X0.0749*%
%ADD42O,0.0749X0.0986*%
%ADD43R,0.0749X0.0986*%
%ADD44C,0.2442*%
G36*
X18519Y14389D02*
X18521Y14388D01*
X18535Y14387D01*
X18537Y14387D01*
X18539Y14387D01*
X18566Y14381D01*
X18568Y14381D01*
X18569Y14380D01*
X18596Y14373D01*
X18598Y14372D01*
X18599Y14372D01*
X18625Y14361D01*
X18627Y14361D01*
X18629Y14360D01*
X18653Y14348D01*
X18655Y14347D01*
X18656Y14346D01*
X18680Y14331D01*
X18681Y14330D01*
X18683Y14329D01*
X18705Y14312D01*
X18706Y14311D01*
X18708Y14310D01*
X18728Y14291D01*
X18729Y14290D01*
X18731Y14289D01*
X18749Y14268D01*
X18750Y14267D01*
X18752Y14265D01*
X18768Y14243D01*
X18769Y14242D01*
X18770Y14240D01*
X18785Y14217D01*
X18786Y14215D01*
X18786Y14213D01*
X18799Y14189D01*
X18799Y14187D01*
X18800Y14185D01*
X18810Y14159D01*
X18811Y14158D01*
X18811Y14156D01*
X18819Y14129D01*
X18819Y14128D01*
X18820Y14126D01*
X18825Y14099D01*
X18825Y14097D01*
X18825Y14095D01*
X18828Y14067D01*
X18828Y14066D01*
X18828Y14064D01*
X18828Y14050D01*
X18828Y14050D01*
X18828Y14036D01*
X18828Y14034D01*
X18828Y14033D01*
X18825Y14005D01*
X18825Y14003D01*
X18825Y14001D01*
X18820Y13974D01*
X18819Y13972D01*
X18819Y13971D01*
X18811Y13944D01*
X18811Y13942D01*
X18810Y13941D01*
X18800Y13915D01*
X18799Y13913D01*
X18799Y13911D01*
X18786Y13887D01*
X18786Y13885D01*
X18785Y13883D01*
X18770Y13860D01*
X18769Y13858D01*
X18768Y13857D01*
X18752Y13835D01*
X18750Y13833D01*
X18749Y13832D01*
X18731Y13811D01*
X18729Y13810D01*
X18728Y13809D01*
X18708Y13790D01*
X18706Y13789D01*
X18705Y13788D01*
X18683Y13771D01*
X18681Y13770D01*
X18680Y13769D01*
X18656Y13754D01*
X18655Y13753D01*
X18653Y13752D01*
X18629Y13740D01*
X18627Y13739D01*
X18625Y13739D01*
X18599Y13728D01*
X18598Y13728D01*
X18596Y13727D01*
X18569Y13720D01*
X18568Y13719D01*
X18566Y13719D01*
X18539Y13713D01*
X18537Y13713D01*
X18535Y13713D01*
X18521Y13712D01*
X18519Y13712D01*
X18517Y13711D01*
X18517D01*
X18517Y13711D01*
X18516Y13711D01*
X18514Y13712D01*
X18512Y13712D01*
X18512Y13712D01*
X18511Y13712D01*
X18509Y13712D01*
X18507Y13713D01*
X18506Y13713D01*
X18506Y13713D01*
X18504Y13714D01*
X18502Y13714D01*
X18501Y13715D01*
X18501Y13715D01*
X18499Y13716D01*
X18497Y13717D01*
X18497Y13717D01*
X18496Y13717D01*
X18495Y13719D01*
X18493Y13720D01*
X18493Y13720D01*
X18492Y13720D01*
X18491Y13722D01*
X18489Y13723D01*
X18489Y13724D01*
X18488Y13724D01*
X18488Y13724D01*
X18488Y13724D01*
X18487Y13724D01*
X18487Y13723D01*
X18486Y13722D01*
X18485Y13721D01*
X18484Y13721D01*
X18484Y13720D01*
X18483Y13720D01*
X18483Y13720D01*
X18482Y13719D01*
X18481Y13718D01*
X18480Y13718D01*
X18480Y13717D01*
X18479Y13717D01*
X18478Y13717D01*
X18477Y13716D01*
X18476Y13716D01*
X18476Y13715D01*
X18475Y13715D01*
X18474Y13715D01*
X18474Y13714D01*
X18473Y13714D01*
X18471Y13714D01*
X18471Y13713D01*
X18470Y13713D01*
X18469Y13713D01*
X18469Y13713D01*
X18468Y13713D01*
X18466Y13712D01*
X18466Y13712D01*
X18465Y13712D01*
X18464Y13712D01*
X18464Y13712D01*
X18462Y13712D01*
X18461Y13711D01*
X18460Y13711D01*
X18460Y13711D01*
X18459Y13711D01*
X18458Y13711D01*
X18457Y13711D01*
X18456Y13711D01*
X18455Y13712D01*
X18454Y13712D01*
X18441Y13713D01*
X18439Y13713D01*
X18437Y13713D01*
X18410Y13719D01*
X18408Y13719D01*
X18406Y13720D01*
X18380Y13727D01*
X18378Y13728D01*
X18376Y13728D01*
X18351Y13739D01*
X18349Y13739D01*
X18347Y13740D01*
X18323Y13752D01*
X18321Y13753D01*
X18319Y13754D01*
X18296Y13769D01*
X18294Y13770D01*
X18293Y13771D01*
X18271Y13788D01*
X18270Y13789D01*
X18268Y13790D01*
X18248Y13809D01*
X18246Y13810D01*
X18245Y13811D01*
X18227Y13832D01*
X18225Y13833D01*
X18224Y13835D01*
X18208Y13857D01*
X18207Y13858D01*
X18206Y13860D01*
X18191Y13883D01*
X18190Y13885D01*
X18189Y13887D01*
X18177Y13911D01*
X18176Y13913D01*
X18176Y13915D01*
X18166Y13941D01*
X18165Y13942D01*
X18164Y13944D01*
X18157Y13971D01*
X18157Y13972D01*
X18156Y13974D01*
X18151Y14001D01*
X18151Y14003D01*
X18151Y14005D01*
X18148Y14032D01*
X18148Y14034D01*
X18148Y14036D01*
X18148Y14050D01*
X18148Y14064D01*
X18148Y14066D01*
X18148Y14067D01*
X18151Y14095D01*
X18151Y14097D01*
X18151Y14099D01*
X18156Y14126D01*
X18157Y14128D01*
X18157Y14129D01*
X18164Y14156D01*
X18165Y14158D01*
X18166Y14159D01*
X18176Y14185D01*
X18176Y14187D01*
X18177Y14189D01*
X18189Y14213D01*
X18190Y14215D01*
X18191Y14217D01*
X18206Y14240D01*
X18207Y14242D01*
X18208Y14243D01*
X18224Y14265D01*
X18225Y14267D01*
X18227Y14268D01*
X18245Y14289D01*
X18246Y14290D01*
X18248Y14291D01*
X18268Y14310D01*
X18270Y14311D01*
X18271Y14312D01*
X18293Y14329D01*
X18294Y14330D01*
X18296Y14331D01*
X18319Y14346D01*
X18321Y14347D01*
X18323Y14348D01*
X18347Y14360D01*
X18349Y14361D01*
X18351Y14361D01*
X18376Y14372D01*
X18378Y14372D01*
X18380Y14373D01*
X18406Y14380D01*
X18408Y14381D01*
X18410Y14381D01*
X18437Y14387D01*
X18439Y14387D01*
X18441Y14387D01*
X18454Y14388D01*
X18456Y14389D01*
X18458Y14389D01*
X18459Y14389D01*
X18460Y14389D01*
X18462Y14388D01*
X18464Y14388D01*
X18464Y14388D01*
X18465Y14388D01*
X18467Y14388D01*
X18469Y14387D01*
X18469Y14387D01*
X18470Y14387D01*
X18472Y14386D01*
X18474Y14386D01*
X18474Y14385D01*
X18475Y14385D01*
X18477Y14384D01*
X18478Y14383D01*
X18479Y14383D01*
X18480Y14383D01*
X18481Y14381D01*
X18483Y14380D01*
X18483Y14380D01*
X18484Y14380D01*
X18485Y14378D01*
X18487Y14377D01*
X18487Y14376D01*
X18488Y14376D01*
X18488Y14376D01*
X18488Y14376D01*
X18489Y14376D01*
X18489Y14377D01*
X18491Y14378D01*
X18492Y14380D01*
X18493Y14380D01*
X18493Y14380D01*
X18495Y14381D01*
X18496Y14383D01*
X18497Y14383D01*
X18497Y14383D01*
X18499Y14384D01*
X18501Y14385D01*
X18501Y14385D01*
X18502Y14386D01*
X18504Y14386D01*
X18506Y14387D01*
X18506Y14387D01*
X18507Y14387D01*
X18509Y14388D01*
X18511Y14388D01*
X18512Y14388D01*
X18512Y14388D01*
X18514Y14388D01*
X18516Y14389D01*
X18517Y14389D01*
X18517Y14389D01*
X18519Y14389D01*
D02*
G37*
G36*
X18512Y15579D02*
X18513Y15578D01*
X18527Y15577D01*
X18529Y15577D01*
X18531Y15577D01*
X18558Y15571D01*
X18560Y15571D01*
X18562Y15570D01*
X18588Y15563D01*
X18590Y15562D01*
X18592Y15562D01*
X18617Y15551D01*
X18619Y15551D01*
X18621Y15550D01*
X18645Y15538D01*
X18647Y15537D01*
X18649Y15536D01*
X18672Y15521D01*
X18673Y15520D01*
X18675Y15519D01*
X18697Y15502D01*
X18698Y15501D01*
X18700Y15500D01*
X18720Y15481D01*
X18721Y15480D01*
X18723Y15479D01*
X18741Y15458D01*
X18742Y15457D01*
X18744Y15455D01*
X18760Y15433D01*
X18761Y15432D01*
X18762Y15430D01*
X18777Y15407D01*
X18778Y15405D01*
X18779Y15403D01*
X18791Y15379D01*
X18792Y15377D01*
X18792Y15375D01*
X18802Y15349D01*
X18803Y15348D01*
X18803Y15346D01*
X18811Y15319D01*
X18811Y15318D01*
X18812Y15316D01*
X18817Y15289D01*
X18817Y15287D01*
X18817Y15285D01*
X18820Y15257D01*
X18820Y15256D01*
X18820Y15254D01*
X18820Y15240D01*
X18820Y15240D01*
X18820Y15226D01*
X18820Y15224D01*
X18820Y15223D01*
X18817Y15195D01*
X18817Y15193D01*
X18817Y15191D01*
X18812Y15164D01*
X18811Y15162D01*
X18811Y15161D01*
X18803Y15134D01*
X18803Y15132D01*
X18802Y15131D01*
X18792Y15105D01*
X18792Y15103D01*
X18791Y15101D01*
X18779Y15077D01*
X18778Y15075D01*
X18777Y15073D01*
X18762Y15050D01*
X18761Y15048D01*
X18760Y15047D01*
X18744Y15025D01*
X18742Y15023D01*
X18741Y15022D01*
X18723Y15001D01*
X18721Y15000D01*
X18720Y14999D01*
X18700Y14980D01*
X18698Y14979D01*
X18697Y14978D01*
X18675Y14961D01*
X18673Y14960D01*
X18672Y14959D01*
X18649Y14944D01*
X18647Y14943D01*
X18645Y14942D01*
X18621Y14930D01*
X18619Y14929D01*
X18617Y14929D01*
X18592Y14918D01*
X18590Y14918D01*
X18588Y14917D01*
X18562Y14910D01*
X18560Y14909D01*
X18558Y14909D01*
X18531Y14903D01*
X18529Y14903D01*
X18527Y14903D01*
X18513Y14902D01*
X18512Y14901D01*
X18510Y14901D01*
X18510D01*
X18509Y14901D01*
X18508Y14901D01*
X18506Y14902D01*
X18504Y14902D01*
X18504Y14902D01*
X18503Y14902D01*
X18501Y14902D01*
X18499Y14903D01*
X18499Y14903D01*
X18498Y14903D01*
X18496Y14904D01*
X18494Y14904D01*
X18494Y14905D01*
X18493Y14905D01*
X18491Y14906D01*
X18489Y14907D01*
X18489Y14907D01*
X18488Y14907D01*
X18487Y14909D01*
X18485Y14910D01*
X18485Y14910D01*
X18484Y14910D01*
X18483Y14912D01*
X18481Y14913D01*
X18481Y14914D01*
X18480Y14914D01*
X18480Y14914D01*
X18480Y14914D01*
X18479Y14914D01*
X18479Y14913D01*
X18478Y14912D01*
X18477Y14911D01*
X18476Y14911D01*
X18476Y14910D01*
X18475Y14910D01*
X18475Y14910D01*
X18474Y14909D01*
X18473Y14908D01*
X18472Y14908D01*
X18472Y14907D01*
X18471Y14907D01*
X18471Y14907D01*
X18469Y14906D01*
X18468Y14906D01*
X18468Y14905D01*
X18467Y14905D01*
X18466Y14905D01*
X18466Y14904D01*
X18465Y14904D01*
X18464Y14904D01*
X18463Y14903D01*
X18462Y14903D01*
X18461Y14903D01*
X18461Y14903D01*
X18460Y14902D01*
X18459Y14902D01*
X18458Y14902D01*
X18457Y14902D01*
X18456Y14902D01*
X18456Y14902D01*
X18455Y14902D01*
X18453Y14901D01*
X18453Y14901D01*
X18452Y14901D01*
X18451Y14901D01*
X18450Y14901D01*
X18449Y14901D01*
X18448Y14901D01*
X18447Y14902D01*
X18447Y14902D01*
X18433Y14903D01*
X18431Y14903D01*
X18429Y14903D01*
X18402Y14909D01*
X18400Y14909D01*
X18398Y14910D01*
X18372Y14917D01*
X18370Y14918D01*
X18368Y14918D01*
X18343Y14929D01*
X18341Y14929D01*
X18339Y14930D01*
X18315Y14942D01*
X18313Y14943D01*
X18311Y14944D01*
X18288Y14959D01*
X18287Y14960D01*
X18285Y14961D01*
X18263Y14978D01*
X18262Y14979D01*
X18260Y14980D01*
X18240Y14999D01*
X18239Y15000D01*
X18237Y15001D01*
X18219Y15022D01*
X18218Y15023D01*
X18216Y15025D01*
X18200Y15047D01*
X18199Y15048D01*
X18198Y15050D01*
X18183Y15073D01*
X18182Y15075D01*
X18181Y15077D01*
X18169Y15101D01*
X18168Y15103D01*
X18168Y15105D01*
X18158Y15131D01*
X18157Y15132D01*
X18157Y15134D01*
X18149Y15161D01*
X18149Y15162D01*
X18148Y15164D01*
X18143Y15191D01*
X18143Y15193D01*
X18143Y15195D01*
X18140Y15223D01*
X18140Y15224D01*
X18140Y15226D01*
X18140Y15240D01*
X18140Y15254D01*
X18140Y15256D01*
X18140Y15257D01*
X18143Y15285D01*
X18143Y15287D01*
X18143Y15289D01*
X18148Y15316D01*
X18149Y15318D01*
X18149Y15319D01*
X18157Y15346D01*
X18157Y15348D01*
X18158Y15349D01*
X18168Y15375D01*
X18168Y15377D01*
X18169Y15379D01*
X18181Y15403D01*
X18182Y15405D01*
X18183Y15407D01*
X18198Y15430D01*
X18199Y15432D01*
X18200Y15433D01*
X18216Y15455D01*
X18218Y15457D01*
X18219Y15458D01*
X18237Y15479D01*
X18239Y15480D01*
X18240Y15481D01*
X18260Y15500D01*
X18262Y15501D01*
X18263Y15502D01*
X18285Y15519D01*
X18287Y15520D01*
X18288Y15521D01*
X18311Y15536D01*
X18313Y15537D01*
X18315Y15538D01*
X18339Y15550D01*
X18341Y15551D01*
X18343Y15551D01*
X18368Y15562D01*
X18370Y15562D01*
X18372Y15563D01*
X18398Y15570D01*
X18400Y15571D01*
X18402Y15571D01*
X18429Y15577D01*
X18431Y15577D01*
X18433Y15577D01*
X18447Y15578D01*
X18448Y15579D01*
X18450Y15579D01*
X18451Y15579D01*
X18452Y15579D01*
X18454Y15578D01*
X18456Y15578D01*
X18456Y15578D01*
X18457Y15578D01*
X18459Y15578D01*
X18461Y15577D01*
X18461Y15577D01*
X18462Y15577D01*
X18464Y15576D01*
X18466Y15576D01*
X18466Y15575D01*
X18467Y15575D01*
X18469Y15574D01*
X18471Y15573D01*
X18471Y15573D01*
X18472Y15573D01*
X18473Y15571D01*
X18475Y15570D01*
X18475Y15570D01*
X18476Y15570D01*
X18477Y15568D01*
X18479Y15567D01*
X18479Y15566D01*
X18480Y15566D01*
X18480Y15566D01*
X18480Y15566D01*
X18481Y15566D01*
X18481Y15567D01*
X18483Y15568D01*
X18484Y15570D01*
X18485Y15570D01*
X18485Y15570D01*
X18487Y15571D01*
X18488Y15573D01*
X18489Y15573D01*
X18489Y15573D01*
X18491Y15574D01*
X18493Y15575D01*
X18494Y15575D01*
X18494Y15576D01*
X18496Y15576D01*
X18498Y15577D01*
X18499Y15577D01*
X18499Y15577D01*
X18501Y15578D01*
X18503Y15578D01*
X18504Y15578D01*
X18504Y15578D01*
X18506Y15578D01*
X18508Y15579D01*
X18509Y15579D01*
X18510Y15579D01*
X18512Y15579D01*
D02*
G37*
D20*
X5560Y14012D02*
D03*
Y12988D02*
D03*
D22*
X3502Y11780D02*
D03*
X2478D02*
D03*
D30*
X2572Y13194D02*
D03*
X3477D02*
D03*
X4383D02*
D03*
D31*
X3477Y15478D02*
D03*
D32*
X6380Y13525D02*
D03*
Y12935D02*
D03*
X11480Y17350D02*
D03*
Y17941D02*
D03*
X13610Y11875D02*
D03*
Y11285D02*
D03*
X12570D02*
D03*
Y11875D02*
D03*
X12210Y17941D02*
D03*
Y17350D02*
D03*
X7950Y14445D02*
D03*
Y15035D02*
D03*
D33*
X3535Y11010D02*
D03*
X2945D02*
D03*
X9205Y13090D02*
D03*
X8615D02*
D03*
X15440Y15690D02*
D03*
X16031D02*
D03*
X2735Y9560D02*
D03*
X3325D02*
D03*
X20065Y13480D02*
D03*
X19475D02*
D03*
X20065Y14670D02*
D03*
X19475D02*
D03*
X8545Y17520D02*
D03*
X9135D02*
D03*
X19475Y14050D02*
D03*
X20065D02*
D03*
X19491Y15200D02*
D03*
X20082D02*
D03*
X10325Y17520D02*
D03*
X9735D02*
D03*
X9501Y15920D02*
D03*
X8910D02*
D03*
D34*
X2650Y8860D02*
D03*
X3550D02*
D03*
D35*
X12540Y10630D02*
D03*
Y9730D02*
D03*
D36*
X11511Y16269D02*
D03*
X11708D02*
D03*
X11904D02*
D03*
X12101D02*
D03*
X12298D02*
D03*
X12495D02*
D03*
X12692D02*
D03*
X12889D02*
D03*
X13086D02*
D03*
X13282D02*
D03*
X13479D02*
D03*
X13676D02*
D03*
Y12942D02*
D03*
X13479D02*
D03*
X13282D02*
D03*
X13086D02*
D03*
X12889D02*
D03*
X12692D02*
D03*
X12495D02*
D03*
X12298D02*
D03*
X12101D02*
D03*
X11904D02*
D03*
X11708D02*
D03*
X11511D02*
D03*
D37*
X14257Y15688D02*
D03*
Y15491D02*
D03*
Y15294D02*
D03*
Y15097D02*
D03*
Y14901D02*
D03*
Y14704D02*
D03*
Y14507D02*
D03*
Y14310D02*
D03*
Y14113D02*
D03*
Y13916D02*
D03*
Y13719D02*
D03*
Y13523D02*
D03*
X10930D02*
D03*
Y13719D02*
D03*
Y13916D02*
D03*
Y14113D02*
D03*
Y14310D02*
D03*
Y14507D02*
D03*
Y14704D02*
D03*
Y14901D02*
D03*
Y15097D02*
D03*
Y15294D02*
D03*
Y15491D02*
D03*
Y15688D02*
D03*
D38*
X18630Y14050D02*
D03*
X18346D02*
D03*
X18622Y15240D02*
D03*
X18338D02*
D03*
D39*
X8677Y14475D02*
D03*
X9543D02*
D03*
Y15145D02*
D03*
X8677D02*
D03*
D40*
X21460Y11360D02*
D03*
Y10360D02*
D03*
X21450Y15490D02*
D03*
Y14490D02*
D03*
Y13490D02*
D03*
D41*
X21460Y9360D02*
D03*
X21450Y12490D02*
D03*
D42*
X8600Y18900D02*
D03*
X7600D02*
D03*
X9600D02*
D03*
X15440Y2840D02*
D03*
X14440D02*
D03*
X13440D02*
D03*
X12440D02*
D03*
X11440D02*
D03*
D43*
X6600Y18900D02*
D03*
D44*
X15945Y11057D02*
D03*
X8071D02*
D03*
M02*
