M48
;Layer_Color=9474304
;FILE_FORMAT=2:4
INCH,TZ
;TYPE=PLATED
T1F00S00C0.0236
T2F00S00C0.0433
T3F00S00C0.1181
%
T01
X18690Y3280
Y4780
Y6280
X20190
X21690
Y7780
X20190
X18690
Y9280
X19240Y12670
X18970Y14870
X20560Y16120
X16031Y15259
X15580Y14330
X15360Y13730
X16200Y13560
X16620Y12670
X17190Y9280
Y7780
X15690
Y9280
X14190
Y10780
Y7780
Y6280
X15690
Y4780
X12690Y7780
X9690Y4780
Y3280
X8190Y4780
Y6280
X6690
Y7780
X5190
Y9280
X4070Y10480
X5190Y12280
X6690
X9220Y13440
X11817Y14507
X9430Y16920
X5190Y16780
Y15280
X3690Y16780
Y7780
Y6280
X5190
X8190Y9280
X2190Y10780
Y7780
Y6280
Y15280
X5190Y18280
X14190
T02
X21460Y9360
Y10360
Y11360
X21450Y12490
Y13490
Y14490
Y15490
X15440Y2840
X14440
X13440
X12440
X11440
X9600Y18900
X8600
X7600
X6600
T03
X8071Y11057
X15945
M30
