G04*
G04 #@! TF.GenerationSoftware,Altium Limited,Altium Designer,21.3.2 (30)*
G04*
G04 Layer_Color=128*
%FSLAX24Y24*%
%MOIN*%
G70*
G04*
G04 #@! TF.SameCoordinates,C6C43F33-DCCB-449E-A6F8-7945281E5F6C*
G04*
G04*
G04 #@! TF.FilePolarity,Positive*
G04*
G01*
G75*
%ADD57C,0.0020*%
D57*
X21243Y11360D02*
X21677D01*
X21460Y11143D02*
Y11577D01*
X21243Y10360D02*
X21677D01*
X21460Y10143D02*
Y10577D01*
X21243Y9360D02*
X21677D01*
X21460Y9143D02*
Y9577D01*
X21233Y15490D02*
X21667D01*
X21450Y15273D02*
Y15707D01*
X21233Y14490D02*
X21667D01*
X21450Y14273D02*
Y14707D01*
X21233Y13490D02*
X21667D01*
X21450Y13273D02*
Y13707D01*
X21233Y12490D02*
X21667D01*
X21450Y12273D02*
Y12707D01*
X8383Y18900D02*
X8817D01*
X8600Y18683D02*
Y19117D01*
X6383Y18900D02*
X6817D01*
X6600Y18683D02*
Y19117D01*
X7383Y18900D02*
X7817D01*
X7600Y18683D02*
Y19117D01*
X9383Y18900D02*
X9817D01*
X9600Y18683D02*
Y19117D01*
X15223Y2840D02*
X15657D01*
X15440Y2623D02*
Y3057D01*
X14223Y2840D02*
X14657D01*
X14440Y2623D02*
Y3057D01*
X13223Y2840D02*
X13657D01*
X13440Y2623D02*
Y3057D01*
X12223Y2840D02*
X12657D01*
X12440Y2623D02*
Y3057D01*
X11223Y2840D02*
X11657D01*
X11440Y2623D02*
Y3057D01*
X15355Y11057D02*
X16536D01*
X15945Y10467D02*
Y11648D01*
X7481Y11057D02*
X8662D01*
X8071Y10467D02*
Y11648D01*
X15462Y14330D02*
X15698D01*
X15580Y14212D02*
Y14448D01*
X15242Y13730D02*
X15478D01*
X15360Y13612D02*
Y13848D01*
X9102Y13440D02*
X9338D01*
X9220Y13322D02*
Y13558D01*
X21572Y7780D02*
X21808D01*
X21690Y7662D02*
Y7898D01*
X21572Y6280D02*
X21808D01*
X21690Y6162D02*
Y6398D01*
X20072Y7780D02*
X20308D01*
X20190Y7662D02*
Y7898D01*
X20072Y6280D02*
X20308D01*
X20190Y6162D02*
Y6398D01*
X18572Y9280D02*
X18808D01*
X18690Y9162D02*
Y9398D01*
X18572Y7780D02*
X18808D01*
X18690Y7662D02*
Y7898D01*
X18572Y6280D02*
X18808D01*
X18690Y6162D02*
Y6398D01*
X18572Y4780D02*
X18808D01*
X18690Y4662D02*
Y4898D01*
X18572Y3280D02*
X18808D01*
X18690Y3162D02*
Y3398D01*
X17072Y9280D02*
X17308D01*
X17190Y9162D02*
Y9398D01*
X17072Y7780D02*
X17308D01*
X17190Y7662D02*
Y7898D01*
X15572Y9280D02*
X15808D01*
X15690Y9162D02*
Y9398D01*
X15572Y7780D02*
X15808D01*
X15690Y7662D02*
Y7898D01*
X15572Y6280D02*
X15808D01*
X15690Y6162D02*
Y6398D01*
X15572Y4780D02*
X15808D01*
X15690Y4662D02*
Y4898D01*
X14072Y18280D02*
X14308D01*
X14190Y18162D02*
Y18398D01*
X14072Y10780D02*
X14308D01*
X14190Y10662D02*
Y10898D01*
X14072Y9280D02*
X14308D01*
X14190Y9162D02*
Y9398D01*
X14072Y7780D02*
X14308D01*
X14190Y7662D02*
Y7898D01*
X14072Y6280D02*
X14308D01*
X14190Y6162D02*
Y6398D01*
X12572Y7780D02*
X12808D01*
X12690Y7662D02*
Y7898D01*
X9572Y4780D02*
X9808D01*
X9690Y4662D02*
Y4898D01*
X9572Y3280D02*
X9808D01*
X9690Y3162D02*
Y3398D01*
X8072Y9280D02*
X8308D01*
X8190Y9162D02*
Y9398D01*
X8072Y6280D02*
X8308D01*
X8190Y6162D02*
Y6398D01*
X8072Y4780D02*
X8308D01*
X8190Y4662D02*
Y4898D01*
X6572Y12280D02*
X6808D01*
X6690Y12162D02*
Y12398D01*
X6572Y7780D02*
X6808D01*
X6690Y7662D02*
Y7898D01*
X6572Y6280D02*
X6808D01*
X6690Y6162D02*
Y6398D01*
X5072Y18280D02*
X5308D01*
X5190Y18162D02*
Y18398D01*
X5072Y16780D02*
X5308D01*
X5190Y16662D02*
Y16898D01*
X5072Y15280D02*
X5308D01*
X5190Y15162D02*
Y15398D01*
X5072Y12280D02*
X5308D01*
X5190Y12162D02*
Y12398D01*
X5072Y9280D02*
X5308D01*
X5190Y9162D02*
Y9398D01*
X5072Y7780D02*
X5308D01*
X5190Y7662D02*
Y7898D01*
X5072Y6280D02*
X5308D01*
X5190Y6162D02*
Y6398D01*
X3572Y16780D02*
X3808D01*
X3690Y16662D02*
Y16898D01*
X3572Y7780D02*
X3808D01*
X3690Y7662D02*
Y7898D01*
X3572Y6280D02*
X3808D01*
X3690Y6162D02*
Y6398D01*
X2072Y15280D02*
X2308D01*
X2190Y15162D02*
Y15398D01*
X2072Y10780D02*
X2308D01*
X2190Y10662D02*
Y10898D01*
X2072Y7780D02*
X2308D01*
X2190Y7662D02*
Y7898D01*
X2072Y6280D02*
X2308D01*
X2190Y6162D02*
Y6398D01*
X15912Y15259D02*
X16149D01*
X16031Y15141D02*
Y15378D01*
X20442Y16120D02*
X20678D01*
X20560Y16002D02*
Y16238D01*
X19122Y12670D02*
X19358D01*
X19240Y12552D02*
Y12788D01*
X16502Y12670D02*
X16738D01*
X16620Y12552D02*
Y12788D01*
X9312Y16920D02*
X9548D01*
X9430Y16802D02*
Y17038D01*
X3952Y10480D02*
X4188D01*
X4070Y10362D02*
Y10598D01*
X18852Y14870D02*
X19088D01*
X18970Y14752D02*
Y14988D01*
X11699Y14507D02*
X11935D01*
X11817Y14389D02*
Y14625D01*
X16082Y13560D02*
X16318D01*
X16200Y13442D02*
Y13678D01*
M02*
