G04*
G04 #@! TF.GenerationSoftware,Altium Limited,Altium Designer,21.3.2 (30)*
G04*
G04 Layer_Color=32768*
%FSLAX24Y24*%
%MOIN*%
G70*
G04*
G04 #@! TF.SameCoordinates,C6C43F33-DCCB-449E-A6F8-7945281E5F6C*
G04*
G04*
G04 #@! TF.FilePolarity,Positive*
G04*
G01*
G75*
%ADD13C,0.0079*%
G36*
X5630Y13747D02*
X5629D01*
X5628D01*
X5626D01*
X5623Y13747D01*
X5620Y13748D01*
X5616Y13748D01*
X5612Y13749D01*
X5608Y13750D01*
X5608D01*
X5608Y13751D01*
X5605Y13752D01*
X5602Y13753D01*
X5598Y13755D01*
X5593Y13758D01*
X5587Y13762D01*
X5581Y13766D01*
X5575Y13771D01*
X5574D01*
X5574Y13772D01*
X5572Y13773D01*
X5569Y13777D01*
X5564Y13781D01*
X5558Y13787D01*
X5552Y13794D01*
X5545Y13802D01*
X5537Y13811D01*
X5537Y13812D01*
X5535Y13813D01*
X5534Y13815D01*
X5531Y13818D01*
X5529Y13821D01*
X5525Y13825D01*
X5522Y13829D01*
X5518Y13834D01*
X5509Y13843D01*
X5500Y13852D01*
X5496Y13856D01*
X5491Y13860D01*
X5487Y13864D01*
X5483Y13867D01*
X5483D01*
X5483Y13868D01*
X5482Y13868D01*
X5480Y13869D01*
X5476Y13872D01*
X5471Y13875D01*
X5466Y13877D01*
X5459Y13880D01*
X5452Y13881D01*
X5446Y13882D01*
X5446D01*
X5445D01*
X5443Y13881D01*
X5439Y13881D01*
X5435Y13880D01*
X5430Y13879D01*
X5425Y13876D01*
X5420Y13873D01*
X5415Y13868D01*
X5414Y13868D01*
X5413Y13866D01*
X5411Y13863D01*
X5408Y13859D01*
X5406Y13854D01*
X5404Y13848D01*
X5403Y13841D01*
X5402Y13834D01*
Y13832D01*
X5403Y13830D01*
X5403Y13826D01*
X5404Y13821D01*
X5406Y13815D01*
X5408Y13809D01*
X5411Y13803D01*
X5416Y13798D01*
X5416Y13797D01*
X5418Y13796D01*
X5421Y13793D01*
X5426Y13791D01*
X5431Y13789D01*
X5437Y13786D01*
X5444Y13785D01*
X5453Y13784D01*
X5450Y13753D01*
X5449D01*
X5448Y13753D01*
X5446D01*
X5444Y13753D01*
X5441Y13754D01*
X5438Y13755D01*
X5434Y13756D01*
X5430Y13757D01*
X5421Y13760D01*
X5412Y13764D01*
X5408Y13767D01*
X5403Y13770D01*
X5399Y13773D01*
X5396Y13777D01*
X5395Y13777D01*
X5395Y13778D01*
X5394Y13779D01*
X5393Y13781D01*
X5391Y13783D01*
X5390Y13786D01*
X5388Y13789D01*
X5386Y13792D01*
X5384Y13796D01*
X5383Y13801D01*
X5381Y13805D01*
X5380Y13810D01*
X5379Y13816D01*
X5377Y13822D01*
X5377Y13828D01*
X5377Y13835D01*
Y13838D01*
X5377Y13841D01*
X5377Y13844D01*
X5378Y13847D01*
X5379Y13851D01*
X5379Y13855D01*
X5382Y13865D01*
X5386Y13874D01*
X5388Y13879D01*
X5390Y13884D01*
X5394Y13888D01*
X5397Y13892D01*
X5398Y13892D01*
X5398Y13893D01*
X5399Y13894D01*
X5401Y13895D01*
X5403Y13897D01*
X5405Y13899D01*
X5408Y13901D01*
X5411Y13903D01*
X5418Y13907D01*
X5427Y13910D01*
X5431Y13912D01*
X5436Y13912D01*
X5441Y13913D01*
X5447Y13914D01*
X5447D01*
X5449D01*
X5452Y13913D01*
X5456Y13913D01*
X5460Y13912D01*
X5466Y13911D01*
X5471Y13909D01*
X5476Y13907D01*
X5477Y13907D01*
X5479Y13906D01*
X5482Y13904D01*
X5486Y13902D01*
X5490Y13899D01*
X5496Y13896D01*
X5501Y13891D01*
X5507Y13886D01*
X5508Y13885D01*
X5510Y13884D01*
X5512Y13882D01*
X5514Y13880D01*
X5516Y13878D01*
X5519Y13875D01*
X5522Y13872D01*
X5525Y13868D01*
X5529Y13865D01*
X5533Y13860D01*
X5537Y13856D01*
X5542Y13851D01*
X5546Y13845D01*
X5551Y13839D01*
X5552Y13839D01*
X5553Y13838D01*
X5554Y13836D01*
X5555Y13835D01*
X5557Y13832D01*
X5559Y13830D01*
X5564Y13824D01*
X5570Y13818D01*
X5575Y13812D01*
X5580Y13807D01*
X5582Y13805D01*
X5584Y13803D01*
X5584Y13802D01*
X5585Y13801D01*
X5586Y13800D01*
X5589Y13798D01*
X5591Y13796D01*
X5594Y13794D01*
X5600Y13790D01*
Y13914D01*
X5630D01*
Y13747D01*
D02*
G37*
G36*
X5552Y13722D02*
X5554Y13722D01*
X5557Y13721D01*
X5560Y13719D01*
X5564Y13718D01*
X5569Y13716D01*
X5573Y13714D01*
X5584Y13709D01*
X5594Y13702D01*
X5599Y13698D01*
X5604Y13694D01*
X5608Y13690D01*
X5613Y13685D01*
X5613Y13685D01*
X5614Y13684D01*
X5614Y13682D01*
X5616Y13680D01*
X5618Y13677D01*
X5620Y13674D01*
X5621Y13670D01*
X5623Y13666D01*
X5625Y13662D01*
X5627Y13657D01*
X5629Y13651D01*
X5631Y13645D01*
X5632Y13639D01*
X5633Y13633D01*
X5634Y13626D01*
X5634Y13618D01*
Y13614D01*
X5634Y13611D01*
Y13608D01*
X5633Y13604D01*
X5633Y13600D01*
X5632Y13595D01*
X5630Y13584D01*
X5627Y13573D01*
X5623Y13562D01*
X5621Y13557D01*
X5618Y13552D01*
X5617Y13552D01*
X5617Y13551D01*
X5616Y13549D01*
X5614Y13548D01*
X5613Y13546D01*
X5611Y13543D01*
X5608Y13540D01*
X5605Y13537D01*
X5602Y13535D01*
X5599Y13531D01*
X5590Y13525D01*
X5581Y13519D01*
X5570Y13513D01*
X5569D01*
X5568Y13512D01*
X5566Y13512D01*
X5564Y13511D01*
X5561Y13510D01*
X5558Y13509D01*
X5554Y13508D01*
X5549Y13507D01*
X5545Y13505D01*
X5539Y13504D01*
X5528Y13502D01*
X5515Y13501D01*
X5502Y13500D01*
X5502D01*
X5500D01*
X5498D01*
X5495Y13500D01*
X5492D01*
X5488Y13501D01*
X5483Y13501D01*
X5479Y13502D01*
X5468Y13504D01*
X5456Y13506D01*
X5445Y13510D01*
X5434Y13515D01*
X5433Y13515D01*
X5432Y13516D01*
X5431Y13516D01*
X5429Y13518D01*
X5426Y13519D01*
X5423Y13521D01*
X5417Y13526D01*
X5410Y13532D01*
X5402Y13539D01*
X5395Y13548D01*
X5389Y13558D01*
X5388Y13558D01*
X5388Y13559D01*
X5387Y13560D01*
X5386Y13562D01*
X5385Y13565D01*
X5384Y13568D01*
X5383Y13572D01*
X5381Y13576D01*
X5380Y13580D01*
X5378Y13585D01*
X5376Y13595D01*
X5374Y13607D01*
X5373Y13619D01*
Y13622D01*
X5374Y13625D01*
X5374Y13628D01*
X5375Y13632D01*
X5375Y13636D01*
X5376Y13641D01*
X5378Y13651D01*
X5382Y13662D01*
X5384Y13667D01*
X5386Y13672D01*
X5390Y13677D01*
X5393Y13682D01*
X5393Y13683D01*
X5394Y13683D01*
X5395Y13685D01*
X5396Y13687D01*
X5398Y13689D01*
X5401Y13691D01*
X5404Y13694D01*
X5407Y13697D01*
X5410Y13699D01*
X5415Y13702D01*
X5419Y13706D01*
X5424Y13709D01*
X5429Y13711D01*
X5435Y13714D01*
X5440Y13716D01*
X5447Y13718D01*
X5455Y13686D01*
X5454D01*
X5454Y13685D01*
X5452Y13685D01*
X5450Y13684D01*
X5448Y13683D01*
X5445Y13682D01*
X5439Y13679D01*
X5433Y13675D01*
X5426Y13671D01*
X5420Y13666D01*
X5415Y13660D01*
X5414Y13659D01*
X5412Y13657D01*
X5411Y13653D01*
X5408Y13649D01*
X5406Y13642D01*
X5404Y13635D01*
X5402Y13627D01*
X5402Y13618D01*
Y13615D01*
X5402Y13613D01*
Y13611D01*
X5403Y13608D01*
X5404Y13601D01*
X5405Y13593D01*
X5408Y13585D01*
X5411Y13577D01*
X5416Y13569D01*
Y13569D01*
X5417Y13568D01*
X5419Y13566D01*
X5422Y13563D01*
X5426Y13559D01*
X5431Y13554D01*
X5438Y13549D01*
X5445Y13546D01*
X5454Y13542D01*
X5454D01*
X5455Y13542D01*
X5456Y13541D01*
X5458Y13541D01*
X5460Y13540D01*
X5462Y13539D01*
X5468Y13538D01*
X5476Y13537D01*
X5484Y13535D01*
X5493Y13535D01*
X5502Y13534D01*
X5502D01*
X5503D01*
X5505D01*
X5507D01*
X5510Y13535D01*
X5513D01*
X5517Y13535D01*
X5521Y13535D01*
X5530Y13536D01*
X5539Y13538D01*
X5549Y13540D01*
X5558Y13543D01*
X5558D01*
X5559Y13544D01*
X5560Y13544D01*
X5562Y13545D01*
X5566Y13547D01*
X5572Y13551D01*
X5577Y13555D01*
X5584Y13560D01*
X5589Y13566D01*
X5594Y13572D01*
Y13573D01*
X5594Y13574D01*
X5595Y13575D01*
X5596Y13576D01*
X5597Y13578D01*
X5598Y13580D01*
X5600Y13585D01*
X5602Y13592D01*
X5604Y13599D01*
X5605Y13607D01*
X5606Y13615D01*
Y13618D01*
X5605Y13620D01*
Y13623D01*
X5605Y13625D01*
X5604Y13632D01*
X5602Y13639D01*
X5599Y13647D01*
X5595Y13655D01*
X5593Y13659D01*
X5590Y13663D01*
X5589Y13663D01*
X5589Y13663D01*
X5588Y13665D01*
X5587Y13666D01*
X5585Y13667D01*
X5583Y13669D01*
X5581Y13671D01*
X5578Y13673D01*
X5574Y13675D01*
X5571Y13678D01*
X5567Y13680D01*
X5563Y13682D01*
X5558Y13684D01*
X5553Y13686D01*
X5547Y13688D01*
X5542Y13689D01*
X5550Y13723D01*
X5550D01*
X5552Y13722D01*
D02*
G37*
G36*
X3115Y11966D02*
X3118Y11966D01*
X3122Y11965D01*
X3126Y11965D01*
X3131Y11964D01*
X3141Y11962D01*
X3152Y11959D01*
X3157Y11956D01*
X3162Y11954D01*
X3167Y11951D01*
X3172Y11947D01*
X3173Y11947D01*
X3173Y11946D01*
X3175Y11945D01*
X3177Y11944D01*
X3179Y11942D01*
X3181Y11939D01*
X3184Y11936D01*
X3187Y11933D01*
X3189Y11930D01*
X3192Y11925D01*
X3196Y11921D01*
X3199Y11916D01*
X3201Y11911D01*
X3204Y11905D01*
X3206Y11900D01*
X3208Y11893D01*
X3176Y11885D01*
Y11886D01*
X3175Y11886D01*
X3175Y11888D01*
X3174Y11890D01*
X3173Y11892D01*
X3172Y11895D01*
X3169Y11901D01*
X3165Y11907D01*
X3161Y11914D01*
X3156Y11920D01*
X3150Y11925D01*
X3149Y11926D01*
X3147Y11928D01*
X3143Y11929D01*
X3139Y11932D01*
X3132Y11934D01*
X3125Y11936D01*
X3117Y11938D01*
X3108Y11938D01*
X3105D01*
X3103Y11938D01*
X3101D01*
X3098Y11937D01*
X3091Y11936D01*
X3083Y11935D01*
X3075Y11932D01*
X3067Y11929D01*
X3059Y11924D01*
X3059D01*
X3058Y11923D01*
X3056Y11921D01*
X3053Y11918D01*
X3049Y11914D01*
X3044Y11909D01*
X3040Y11902D01*
X3036Y11895D01*
X3032Y11886D01*
Y11886D01*
X3031Y11885D01*
X3031Y11884D01*
X3031Y11882D01*
X3030Y11880D01*
X3029Y11878D01*
X3028Y11872D01*
X3027Y11864D01*
X3025Y11856D01*
X3025Y11847D01*
X3024Y11838D01*
Y11838D01*
Y11837D01*
Y11835D01*
Y11833D01*
X3025Y11830D01*
Y11827D01*
X3025Y11823D01*
X3025Y11819D01*
X3026Y11810D01*
X3028Y11801D01*
X3030Y11791D01*
X3033Y11782D01*
Y11782D01*
X3034Y11781D01*
X3034Y11780D01*
X3035Y11778D01*
X3037Y11774D01*
X3041Y11768D01*
X3045Y11763D01*
X3050Y11756D01*
X3056Y11751D01*
X3062Y11746D01*
X3063D01*
X3064Y11746D01*
X3065Y11745D01*
X3066Y11744D01*
X3068Y11743D01*
X3070Y11742D01*
X3075Y11740D01*
X3082Y11738D01*
X3089Y11736D01*
X3097Y11735D01*
X3105Y11734D01*
X3108D01*
X3110Y11735D01*
X3113D01*
X3115Y11735D01*
X3122Y11736D01*
X3129Y11738D01*
X3137Y11741D01*
X3145Y11745D01*
X3149Y11747D01*
X3153Y11750D01*
X3153Y11751D01*
X3153Y11751D01*
X3155Y11752D01*
X3156Y11753D01*
X3157Y11755D01*
X3159Y11757D01*
X3161Y11759D01*
X3163Y11762D01*
X3165Y11766D01*
X3168Y11769D01*
X3170Y11773D01*
X3172Y11777D01*
X3174Y11782D01*
X3176Y11787D01*
X3178Y11793D01*
X3179Y11798D01*
X3213Y11790D01*
Y11790D01*
X3212Y11788D01*
X3212Y11786D01*
X3211Y11783D01*
X3209Y11780D01*
X3208Y11776D01*
X3206Y11771D01*
X3204Y11767D01*
X3199Y11756D01*
X3192Y11746D01*
X3188Y11741D01*
X3184Y11736D01*
X3180Y11732D01*
X3175Y11727D01*
X3175Y11727D01*
X3174Y11726D01*
X3172Y11726D01*
X3170Y11724D01*
X3167Y11722D01*
X3164Y11720D01*
X3160Y11719D01*
X3156Y11717D01*
X3152Y11715D01*
X3147Y11713D01*
X3141Y11711D01*
X3135Y11709D01*
X3129Y11708D01*
X3122Y11707D01*
X3116Y11706D01*
X3108Y11706D01*
X3104D01*
X3101Y11706D01*
X3098D01*
X3094Y11707D01*
X3090Y11707D01*
X3085Y11708D01*
X3074Y11710D01*
X3063Y11713D01*
X3052Y11717D01*
X3047Y11719D01*
X3042Y11722D01*
X3042Y11723D01*
X3041Y11723D01*
X3040Y11724D01*
X3038Y11726D01*
X3036Y11727D01*
X3033Y11729D01*
X3030Y11732D01*
X3027Y11735D01*
X3025Y11738D01*
X3021Y11741D01*
X3015Y11750D01*
X3009Y11759D01*
X3003Y11770D01*
Y11771D01*
X3002Y11772D01*
X3002Y11774D01*
X3001Y11776D01*
X3000Y11779D01*
X2999Y11782D01*
X2998Y11786D01*
X2997Y11791D01*
X2995Y11795D01*
X2994Y11801D01*
X2992Y11812D01*
X2991Y11825D01*
X2990Y11838D01*
Y11838D01*
Y11840D01*
Y11842D01*
X2990Y11845D01*
Y11848D01*
X2991Y11852D01*
X2991Y11857D01*
X2992Y11861D01*
X2994Y11872D01*
X2996Y11884D01*
X3000Y11895D01*
X3005Y11906D01*
X3005Y11907D01*
X3006Y11908D01*
X3006Y11909D01*
X3008Y11911D01*
X3009Y11914D01*
X3011Y11917D01*
X3016Y11923D01*
X3022Y11930D01*
X3029Y11938D01*
X3038Y11945D01*
X3048Y11951D01*
X3048Y11952D01*
X3049Y11952D01*
X3050Y11953D01*
X3052Y11954D01*
X3055Y11955D01*
X3058Y11956D01*
X3062Y11957D01*
X3066Y11959D01*
X3070Y11960D01*
X3075Y11962D01*
X3085Y11964D01*
X3097Y11966D01*
X3109Y11967D01*
X3112D01*
X3115Y11966D01*
D02*
G37*
G36*
X3371Y11799D02*
X3405D01*
Y11771D01*
X3371D01*
Y11710D01*
X3340D01*
Y11771D01*
X3231D01*
Y11799D01*
X3346Y11962D01*
X3371D01*
Y11799D01*
D02*
G37*
%LPC*%
G36*
X3340Y11912D02*
X3261Y11799D01*
X3340D01*
Y11912D01*
D02*
G37*
%LPD*%
D13*
X5166Y12673D02*
X5954D01*
Y14327D01*
X5166D02*
X5954D01*
X5166Y12673D02*
Y14327D01*
X2163Y11386D02*
Y12174D01*
Y11386D02*
X3817D01*
Y12174D01*
X2163D02*
X3817D01*
M02*
