G04*
G04 #@! TF.GenerationSoftware,Altium Limited,Altium Designer,21.3.2 (30)*
G04*
G04 Layer_Color=16711935*
%FSLAX24Y24*%
%MOIN*%
G70*
G04*
G04 #@! TF.SameCoordinates,C6C43F33-DCCB-449E-A6F8-7945281E5F6C*
G04*
G04*
G04 #@! TF.FilePolarity,Positive*
G04*
G01*
G75*
%ADD46C,0.0200*%
%ADD56C,0.0200*%
D46*
X21999Y17067D02*
G03*
X21998Y17067I5J-100D01*
G01*
X21851Y17063D02*
G03*
X21998Y17067I-0J2656D01*
G01*
X15656Y19867D02*
G03*
X15657Y19916I-886J49D01*
G01*
X15656Y19866D02*
G03*
X15656Y19867I-886J49D01*
G01*
X15657Y19916D02*
G03*
X14770Y20803I-887J0D01*
G01*
X15656Y19866D02*
G03*
X18308Y17063I2652J-148D01*
G01*
X15656Y19866D02*
G03*
X15656Y19867I-100J6D01*
G01*
X21999Y17067D02*
G03*
X21998Y17067I49J-886D01*
G01*
X22935Y16181D02*
G03*
X21999Y17067I-887J-0D01*
G01*
X22935Y5933D02*
G03*
X22935Y5934I-887J0D01*
G01*
X21999Y5048D02*
G03*
X22935Y5933I49J886D01*
G01*
X21998Y5048D02*
G03*
X21999Y5048I49J886D01*
G01*
X22935Y5933D02*
G03*
X22935Y5934I-100J0D01*
G01*
X21998Y5048D02*
G03*
X21999Y5048I6J100D01*
G01*
X21998Y5048D02*
G03*
X19199Y2248I-148J-2652D01*
G01*
X19201Y2199D02*
G03*
X19199Y2248I-887J0D01*
G01*
X18313Y1312D02*
G03*
X19201Y2199I0J887D01*
G01*
X5704Y20803D02*
G03*
X5703Y20803I0J-100D01*
G01*
X4818Y19867D02*
G03*
X4818Y19866I886J49D01*
G01*
X5703Y20803D02*
G03*
X4818Y19867I0J-887D01*
G01*
X5704Y20803D02*
G03*
X5703Y20803I-0J-887D01*
G01*
X4818Y19867D02*
G03*
X4818Y19866I100J5D01*
G01*
X2018Y17067D02*
G03*
X4822Y19719I148J2652D01*
G01*
D02*
G03*
X4818Y19866I-2656J0D01*
G01*
X2018Y17067D02*
G03*
X1082Y16181I-49J-886D01*
G01*
X8361Y2248D02*
G03*
X8365Y2396I-2652J148D01*
G01*
X8361Y2248D02*
G03*
X9247Y1312I886J-49D01*
G01*
X8365Y2396D02*
G03*
X5709Y5052I-2656J0D01*
G01*
X1082Y5934D02*
G03*
X2018Y5048I887J0D01*
G01*
X2166Y5052D02*
G03*
X2167Y5052I0J100D01*
G01*
X2166Y5052D02*
G03*
X2018Y5048I-0J-2654D01*
G01*
X21851Y17063D02*
X21851D01*
X18308Y17063D02*
X21851Y17063D01*
X18308Y17063D02*
X18308D01*
X22935Y5934D02*
Y16181D01*
X5704Y20803D02*
X14770Y20803D01*
X1082Y16181D02*
Y16181D01*
Y16181D02*
X1082Y5934D01*
Y5934D02*
Y5934D01*
X9247Y1312D02*
X18313Y1312D01*
X5709Y5052D02*
X5709D01*
X2167D02*
X5709D01*
X2166D02*
X2167D01*
D56*
X14770Y20803D02*
D03*
D03*
X22935Y16181D02*
D03*
X22935D02*
D03*
X19199Y2248D02*
D03*
D03*
X2018Y17067D02*
D03*
Y17067D02*
D03*
X5709Y5052D02*
D03*
X2018Y5048D02*
D03*
D03*
M02*
